<?xml version="1.0" standalone="no"?>
<!DOCTYPE svg PUBLIC "-//W3C//DTD SVG 20010904//EN"
 "http://www.w3.org/TR/2001/REC-SVG-20010904/DTD/svg10.dtd">
<svg version="1.0" xmlns="http://www.w3.org/2000/svg"
 width="700.000000pt" height="700.000000pt" viewBox="0 0 700.000000 700.000000"
 preserveAspectRatio="xMidYMid meet">
<metadata>
Created by potrace 1.14, written by Peter Selinger 2001-2017
</metadata>
<g transform="translate(0.000000,700.000000) scale(0.100000,-0.100000)"
fill="#000000" stroke="none">
<path d="M2728 6726 c-1 -2 -39 -6 -83 -10 -44 -3 -89 -8 -100 -10 -11 -2 -49
-9 -85 -16 -140 -27 -391 -100 -495 -145 -16 -7 -59 -25 -95 -40 -88 -37 -230
-109 -308 -156 -35 -21 -66 -39 -69 -39 -5 0 -144 -96 -223 -154 -80 -59 -194
-159 -280 -246 -329 -333 -541 -730 -629 -1178 -40 -202 -45 -254 -45 -507 -1
-300 16 -457 80 -750 161 -732 591 -1598 1118 -2250 137 -169 203 -243 356
-395 387 -386 732 -579 994 -556 198 17 387 112 562 283 l71 69 71 -67 c145
-136 268 -212 422 -260 61 -20 96 -24 190 -23 103 0 125 4 210 32 555 189
1309 1035 1790 2007 270 545 423 1021 489 1525 16 119 19 193 16 410 -1 146
-5 276 -8 290 -3 14 -11 59 -17 100 -64 408 -239 793 -508 1120 -112 136 -318
325 -488 447 -441 317 -1051 530 -1484 518 -137 -3 -204 -20 -326 -80 -106
-52 -183 -107 -284 -204 l-71 -69 -75 73 c-132 128 -287 221 -434 260 -54 15
-251 30 -262 21z"/>
</g>
</svg>
